<svg xmlns="http://www.w3.org/2000/svg" fill="#000000" class="bi bi-house-door-fill" viewBox="0 0 16 16" id="House-Door-Fill--Streamline-Bootstrap" height="16" width="16">
  <desc>
    House Door Fill Streamline Icon: https://streamlinehq.com
  </desc>
  <path d="M6.5 14.5v-3.505c0 -0.245 0.25 -0.495 0.5 -0.495h2c0.25 0 0.5 0.25 0.5 0.5v3.5a0.5 0.5 0 0 0 0.5 0.5h4a0.5 0.5 0 0 0 0.5 -0.5v-7a0.5 0.5 0 0 0 -0.146 -0.354L13 5.793V2.5a0.5 0.5 0 0 0 -0.5 -0.5h-1a0.5 0.5 0 0 0 -0.5 0.5v1.293L8.354 1.146a0.5 0.5 0 0 0 -0.708 0l-6 6A0.5 0.5 0 0 0 1.5 7.5v7a0.5 0.5 0 0 0 0.5 0.5h4a0.5 0.5 0 0 0 0.5 -0.5" stroke-width="1"></path>
</svg>