<svg xmlns="http://www.w3.org/2000/svg" fill="#000000" class="bi bi-wordpress" viewBox="0 0 16 16" id="Wordpress--Streamline-Bootstrap" height="16" width="16">
  <desc>
    Wordpress Streamline Icon: https://streamlinehq.com
  </desc>
  <path d="M12.633 7.653c0 -0.848 -0.305 -1.435 -0.566 -1.892l-0.08 -0.13c-0.317 -0.51 -0.594 -0.958 -0.594 -1.48 0 -0.63 0.478 -1.218 1.152 -1.218q0.03 0 0.058 0.003l0.031 0.003A6.84 6.84 0 0 0 8 1.137 6.86 6.86 0 0 0 2.266 4.23c0.16 0.005 0.313 0.009 0.442 0.009 0.717 0 1.828 -0.087 1.828 -0.087 0.37 -0.022 0.414 0.521 0.044 0.565 0 0 -0.371 0.044 -0.785 0.065l2.5 7.434 1.5 -4.506 -1.07 -2.929c-0.369 -0.022 -0.719 -0.065 -0.719 -0.065 -0.37 -0.022 -0.326 -0.588 0.043 -0.566 0 0 1.134 0.087 1.808 0.087 0.718 0 1.83 -0.087 1.83 -0.087 0.37 -0.022 0.413 0.522 0.043 0.566 0 0 -0.372 0.043 -0.785 0.065l2.48 7.377 0.684 -2.287 0.054 -0.173c0.27 -0.86 0.469 -1.495 0.469 -2.046zM1.137 8a6.86 6.86 0 0 0 3.868 6.176L1.73 5.206A6.8 6.8 0 0 0 1.137 8" stroke-width="1"></path>
  <path d="M6.061 14.583 8.121 8.6l2.109 5.78q0.02 0.05 0.049 0.094a6.85 6.85 0 0 1 -4.218 0.109m7.96 -9.876q0.046 0.328 0.047 0.706c0 0.696 -0.13 1.479 -0.522 2.458l-2.096 6.06a6.86 6.86 0 0 0 2.572 -9.224z" stroke-width="1"></path>
  <path fill-rule="evenodd" d="M0 8c0 -4.411 3.589 -8 8 -8s8 3.589 8 8 -3.59 8 -8 8 -8 -3.589 -8 -8m0.367 0c0 4.209 3.424 7.633 7.633 7.633S15.632 12.209 15.632 8C15.632 3.79 12.208 0.367 8 0.367 3.79 0.367 0.367 3.79 0.367 8" stroke-width="1"></path>
</svg>